# xmcd
#
# Track frame offsets:
#	150
#	23867
#	36840
#	51396
#	60074
#	80511
#	90520
#	109306
#	128049
#	143761
#	157347
#	174381
#	190504
#	204458
#	220985
#	235588
#
# Disc length: 3311 seconds
#
# Revision: 0
# Processed by: cddbd v1.5.2PL0 Copyright (c) Steve Scherf et al.
# Submitted via: EasyCDDAExtractor 16.0.6.1
#
DISCID=d40ced10
DTITLE=Ισίδωρος Παπαδάμου - Του διαβόλου τα λυχνάρια-Ι. Παπαδάμου
DYEAR=1999
DGENRE=Ρεμπέτικη
TTITLE0=Παπαδάμου Ισίδωρος - Θα παίξω το μπουζούκι μου βαριά
TTITLE1=Παπαδάμου Ισίδωρος - Πονηρή γυναίκα
TTITLE2=Παπαδάμου Αναστασία-Παπαδάμου Ανδρέας - Μάλωσέ με
TTITLE3=Παπαδάμου Ισίδωρος - Είν' η καρδιά μου όλο πουλιά
TTITLE4=Παπαδάμου Ισίδωρος-Παπαδάμου Ανδρέας - Ο παράς
TTITLE5=Παπαδάμου Ισίδωρος - Γιατί καλέ
TTITLE6=Παπαδάμου Αναστασία - Στου κόσμου το τοπίο το γυμνό
TTITLE7=Άνευ ερμηνευτού - Συρτό
TTITLE8=Παπαδάμου Ισίδωρος - Δεν σού 'φθαναν οι έρωτες
TTITLE9=Παπαδάμου Ισίδωρος - Καλέ μικρή
TTITLE10=Παπαδάμου Ισίδωρος - Ο αποκαρδιωμένος
TTITLE11=Παπαδάμου Ισίδωρος - Τι σού συμβαίνει
TTITLE12=Παπαδάμου Αναστασία-Δημητρίου Νικολέττα - Τα θυμαρίσια φύλλα
TTITLE13=Άνευ ερμηνευτού - Από το μινόρε στο μαντζόρε [χασάπ. οργαν., μπ. Ισ. 
TTITLE13=και Ανδ. Παπαδάμου]
TTITLE14=Παπαδάμου Ισίδωρος - Πες και τι έγινε
TTITLE15=Παπαδάμου Ισίδωρος - Τι έχει και παραπονιέται
EXTD=
EXTT0=
EXTT1=
EXTT2=
EXTT3=
EXTT4=
EXTT5=
EXTT6=
EXTT7=
EXTT8=
EXTT9=
EXTT10=
EXTT11=
EXTT12=
EXTT13=
EXTT14=
EXTT15=
PLAYORDER=
